# xmcd CD database file
#
# Track frame offsets:
#	150
#	24970
#	54430
#	79923
#	102253
#	129446
#	152318
#	176080
#	198060
#
# Disc length: 2929 seconds
#
# Revision: 0
# Processed by: cddbd v1.5.1PL2 Copyright (c) Steve Scherf et al.
# Submitted via: CDex 1.51
#
DISCID=610b6f09
DTITLE=Chris Spheeris - Acoustica
DYEAR=2006
DGENRE=New Age
TTITLE0=Seveness
TTITLE1=Taiku
TTITLE2=Bellaire
TTITLE3=Orlando
TTITLE4=Lanotte
TTITLE5=Sapphire
TTITLE6=Aqualuna
TTITLE7=Through the Wall
TTITLE8=Margarita
EXTD=YEAR: 2006
EXTT0=
EXTT1=
EXTT2=
EXTT3=
EXTT4=
EXTT5=
EXTT6=
EXTT7=
EXTT8=
PLAYORDER=
